<?xml version="1.0" encoding="iso-8859-1"?>
<!-- Generator: Adobe Illustrator 19.0.0, SVG Export Plug-In . SVG Version: 6.00 Build 0)  -->
<!-- License: CC0. Made by SVG Repo: https://www.svgrepo.com/svg/282321/plumbering-water-supply -->
<svg version="1.1" id="Layer_1" xmlns="http://www.w3.org/2000/svg" xmlns:xlink="http://www.w3.org/1999/xlink" x="0px" y="0px"
	 viewBox="0 0 511.999 511.999" style="enable-background:new 0 0 511.999 511.999;" xml:space="preserve">
<polygon style="fill:#C1C1C1;" points="285.37,0 269.697,0 259.239,131.653 285.37,131.653 "/>
<rect x="254.027" style="fill:#DFDFDF;" width="15.674" height="131.658"/>
<polygon style="fill:#9B9B9B;" points="351.77,20.258 269.697,20.258 259.239,35.931 269.697,51.605 351.77,51.605 "/>
<path style="fill:#DFDFDF;" d="M402.629,146.502h-55.41c-12.372-30.685-42.408-52.351-77.522-52.351l0,0l-20.915,85.92l20.915,81.23
	l0,0c35.114,0,65.151-21.666,77.522-52.351h55.41v98.949h62.448V208.95v-62.448H402.629z"/>
<path style="fill:#F1F1F1;" d="M192.174,146.502H28.238v62.448h163.936c12.372,30.685,42.408,52.351,77.523,52.351V94.151
	C234.581,94.151,204.546,115.818,192.174,146.502z"/>
<rect x="187.623" y="20.258" style="fill:#C1C1C1;" width="82.078" height="31.347"/>
<path style="fill:#8BCBF1;" d="M477.686,468.167c0-37.146-43.833-77.267-43.833-77.267l-20.915,68.02l20.915,53.078
	C458.061,512,477.686,492.376,477.686,468.167z"/>
<polygon style="fill:#9B9B9B;" points="483.761,286.984 433.853,286.984 412.938,310.706 433.853,334.426 483.761,334.426 "/>
<path style="fill:#C7E5FF;" d="M390.021,468.167c0,24.207,19.624,43.832,43.833,43.832V390.901
	C433.853,390.901,390.021,431.021,390.021,468.167z"/>
<rect x="383.941" y="286.984" style="fill:#C1C1C1;" width="49.908" height="47.439"/>
</svg>
